<?xml version="1.0" encoding="UTF-8" standalone="no"?>
<!--
  Echo brand icon — extracted from labstack/echox logo (MIT, © Labstack).
  Source: https://github.com/labstack/echox/blob/master/website/static/img/logo-dark.svg
  Only Layer_2 (polygon mark) is kept; the "echo" wordmark is removed.
-->
<svg xmlns="http://www.w3.org/2000/svg" viewBox="0 0 38.3 36.7" version="1.1">
  <style>
    .st2{fill:#828282;}
    .st3{fill:#C6C6C6;}
    .st4{fill:#00AFD1;}
    .st5{fill:#4AE1FF;}
  </style>
  <g>
    <polygon class="st2" points="0.8,3.2 6.1,0.2 11.3,3.2 5.9,6.2"/>
    <polygon class="st2" points="7.2,6.9 12.5,3.8 17.8,6.9 12.4,9.8"/>
    <polygon class="st3" points="20.7,6.8 26,3.7 31.2,6.8 25.8,9.8"/>
    <polygon class="st3" points="27.3,3.1 32.6,0 37.8,3.1 32.4,6"/>
    <polygon class="st4" points="0,4.2 0,10.8 5.3,13.8 5.3,7.3"/>
    <polygon class="st4" points="6.6,7.9 6.6,14.5 12,17.4 12,11"/>
    <polygon class="st4" points="13.1,11.4 13.1,18 18.4,20.9 18.4,14.5"/>
    <polygon class="st5" points="38.3,4.3 38.3,10.9 32.9,13.9 32.9,7.4"/>
    <polygon class="st5" points="31.6,8 31.6,14.6 26.3,17.5 26.3,11.1"/>
    <polygon class="st5" points="25.1,11.5 25.1,18.1 19.8,21 19.8,14.6"/>
    <polygon class="st4" points="0,12.1 0,18.7 5.3,21.6 5.3,15.2"/>
    <polygon class="st4" points="6.6,15.7 6.6,22.3 12,25.3 12,18.9"/>
    <polygon class="st4" points="13.1,19.2 13.1,25.8 18.4,28.7 18.4,22.3"/>
    <polygon class="st5" points="38.3,12.2 38.3,18.8 32.9,21.7 32.9,15.3"/>
    <polygon class="st5" points="31.6,15.9 31.6,22.5 26.3,25.4 26.3,19"/>
    <polygon class="st5" points="25.1,19.3 25.1,25.9 19.8,28.8 19.8,22.4"/>
    <polygon class="st4" points="0,19.9 0,26.5 5.3,29.5 5.3,23"/>
    <polygon class="st4" points="6.6,23.6 6.6,30.2 12,33.1 12,26.7"/>
    <polygon class="st4" points="13.1,27.1 13.1,33.7 18.4,36.6 18.4,30.2"/>
    <polygon class="st5" points="38.3,20 38.3,26.6 32.9,29.6 32.9,23.2"/>
    <polygon class="st5" points="31.6,23.7 31.6,30.3 26.3,33.2 26.3,26.8"/>
    <polygon class="st5" points="25.1,27.2 25.1,33.8 19.8,36.7 19.8,30.3"/>
    <polygon class="st2" points="19.2,7.4 13.9,10.5 19.1,13.4 19.2,7.4"/>
    <polygon class="st3" points="19.2,7.4 19.1,13.4 24.4,10.5"/>
  </g>
</svg>
